PathFileType	4	(X/Y/Z)	Patient4_TMGait_0pt7_02_right_23.trc.trc
DataRate	CameraRate	NumFrames	NumMarkers	Units	OrigDataRate	OrigDataStartFrame	OrigNumFrames
85.889570552147	85.889570552147	6	33	mm	85.889570552147	18	       141
Frame#	Time	Sacral			L.Shoulder			Chest			R.Shoulder			Neck			R.ASIS			L.ASIS			R.Thigh.Superior			R.Thigh.Lateral			R.Thigh.Inferior			R.Patella			L.Thigh.Superior			L.Thigh.Lateral			L.Thigh.Inferior			L.Patella			L.Shank.Superior			L.Shank.Lateral			L.Shank.Inferior			R.Shank.Superior			R.Shank.Lateral			R.Shank.Inferior			R.Heel			R.Midfoot.Superior			R.Midfoot.Lateral			R.Toe			L.Heel			L.Midfoot.Lateral			L.Midfoot.Superior			L.Toe			L.Elbow			L.Wrist			R.Elbow			R.Wrist			
		X1	Y1	Z1	X2	Y2	Z2	X3	Y3	Z3	X4	Y4	Z4	X5	Y5	Z5	X6	Y6	Z6	X7	Y7	Z7	X8	Y8	Z8	X9	Y9	Z9	X10	Y10	Z10	X11	Y11	Z11	X12	Y12	Z12	X13	Y13	Z13	X14	Y14	Z14	X15	Y15	Z15	X16	Y16	Z16	X17	Y17	Z17	X18	Y18	Z18	X19	Y19	Z19	X20	Y20	Z20	X21	Y21	Z21	X22	Y22	Z22	X23	Y23	Z23	X24	Y24	Z24	X25	Y25	Z25	X26	Y26	Z26	X27	Y27	Z27	X28	Y28	Z28	X29	Y29	Z29	X30	Y30	Z30	X31	Y31	Z31	X32	Y32	Z32	X33	Y33	Z33	

18	25.757928571429	835.512920339133	1010.584122452929	456.322769142997	1047.451478540027	1428.706463882286	281.702318155511	1136.788769328342	1351.607335053932	447.916584746311	1049.832503213883	1431.540437665766	617.136508644090	1042.349897979146	1489.387751007186	436.884643310346	1053.520022906061	941.399960302248	587.058243781770	1055.518307357778	954.526579105971	311.287499763981	1134.304638736175	775.632226322364	558.242808383210	1096.873387422648	653.746302420464	633.965247425110	1184.436613866426	618.521645391403	552.108102067002	1221.795357804002	531.796223209121	572.345531778494	1064.655797557671	730.542629206643	346.324876437492	955.934034372411	633.842128376282	277.370693023483	1013.702000848414	541.562230064113	346.206690063408	999.118176944232	475.651104356163	356.323779888940	968.391655090808	408.087067059065	345.600717876305	870.990657700339	303.325954564264	288.942639379917	902.231731608987	188.370887998154	364.424737515922	1197.977436826772	441.550073185323	582.593787119476	1136.487093709471	333.487308364534	648.479138041363	1195.451978880454	241.127940289195	595.968162477453	1086.412428216142	61.072790864964	573.508687172378	1255.691356481282	125.235407173372	606.370540567894	1174.233111096071	51.970213522141	641.130993225356	1378.172191352624	79.913126663694	624.739785325692	759.854699490442	39.078282592765	398.409052671109	836.835041478851	36.115848501551	320.966510266323	919.323316545348	95.590758012508	352.242441401387	1048.600130800339	41.416044340351	327.983071008607	1130.600001713492	1112.298728064717	129.247646956055	1370.836977164579	1031.392627048399	184.673443985491	911.786435665707	1114.924472719141	734.067351362129	862.249849595604	859.515879485509	756.921832957336	
19	25.769571428571	837.751876083079	1008.548328640850	458.029424289100	1048.007796811465	1427.253512890192	283.816211756967	1137.523470751331	1350.613619327684	450.125150804776	1050.061707604186	1430.420567974989	619.123781010012	1042.506617127909	1487.868852383919	438.815550806353	1055.525635712366	939.397860363915	589.342057884613	1057.977586863571	953.193939135663	313.477187410673	1134.175223794922	771.438745141433	560.565290163658	1094.636893440292	649.552595563424	635.258004015350	1181.954047191383	614.298651584549	553.281972510677	1218.394573387355	529.047868656255	572.560697336374	1064.352152349307	728.357462725414	348.038600945968	954.124837725420	633.065335443787	278.491055306645	1010.331336626574	539.994220846674	347.334216374119	994.956823959262	474.053003692422	357.251413015353	963.513527992941	406.799557262993	346.400719962726	865.044076558330	303.105335576479	289.458918115993	894.978045579439	187.704006884004	364.750478384984	1197.782937754920	438.672378878351	582.771670474844	1139.595503156144	327.810543234709	647.233640386721	1202.793430548239	237.954262652048	594.532188756262	1100.603672645671	54.203818966676	570.019192944777	1267.807313586438	123.392518842918	603.887567778017	1188.400647709142	47.590478182920	637.995873288142	1391.783744384918	81.897560873093	622.738691613649	751.592138583652	38.799810874915	398.411367264264	828.612594735855	35.914603853378	321.008320991385	911.113642733674	95.497070756663	352.308641565136	1040.441290354576	41.339124099145	327.914225212623	1132.611684336205	1112.194800718816	130.405877106449	1375.288670019020	1044.422095481173	188.988614528283	906.701738833107	1117.372899288346	736.412152385774	852.568451688262	862.986001818967	757.780863043206	
20	25.781214285714	840.117339546122	1006.305237801004	460.050280226555	1048.488493796383	1425.557009048081	286.032178805524	1138.295014608554	1349.514370952785	452.455410225086	1050.309066086972	1429.225633713334	621.216766907865	1042.644221482634	1486.193159113762	440.821632506268	1057.793968624994	937.182775474416	591.760545953778	1060.523911781528	951.712649214277	315.856372323017	1134.641971555314	767.360847893463	562.991838487548	1092.925845523307	645.310140746258	636.271535707303	1180.283865051369	610.252122857001	554.437312122359	1215.430778035181	525.992875374867	572.562815680748	1064.405338355123	726.108434357637	349.635769693549	952.701953308518	632.094352675076	279.805182295927	1007.674836424379	538.282621164430	348.519204837795	991.623827292017	472.151240232925	358.242097200615	959.221271054498	405.255403834732	347.314238904578	859.442930228012	302.866142851475	290.095846980862	887.883541440891	186.932180511262	365.090987339142	1197.400382713749	435.463855419453	582.693862662196	1141.512542438292	322.514404529995	645.609731146145	1207.968237787835	234.763767647787	592.783333151728	1110.841614768528	49.015478892380	566.205185785556	1276.449241182327	121.233794068617	601.146506048365	1198.298601592015	44.189859457431	634.759813039859	1401.242159764508	82.237186769451	620.831351390401	743.295844716403	38.519248650435	398.387613376809	820.387465675164	35.667710728932	321.041848494145	902.936959556538	95.370390610938	352.345871834878	1032.323379934755	41.257946307136	327.813230951380	1134.312602985435	1111.667099373067	131.760042337716	1378.591949846368	1056.638292770790	193.354464954708	901.854943073926	1119.767625825275	738.842686343642	844.193408640168	866.141805834056	758.599871932684	
21	25.792857142857	842.549841570028	1003.915231573694	462.379315802833	1048.902530508731	1423.668349566133	288.360287713672	1139.109275788810	1348.332852550642	454.909765327838	1050.596330940419	1427.963765870102	623.436772528545	1042.788029034235	1484.408045367163	442.931976548110	1060.284700588356	934.810022193997	594.281852636013	1063.094332261197	950.116059570870	318.409465753991	1135.776179478720	763.517316644431	565.478471618509	1091.800619810069	641.145371464898	636.983091216919	1179.507896585862	606.473792173522	555.581313142182	1213.039382767486	522.727413708197	572.352699792524	1064.866158901005	723.845696140171	351.138502438102	951.780718169668	630.909453402099	281.336559119690	1005.913939473761	536.418459411825	349.775617972689	989.327244067208	469.909163099655	359.290875695963	955.668834140244	403.434150367434	348.348487147969	854.307371146732	302.643591915604	290.864130625659	881.025199092133	186.085407148334	365.436120270657	1196.939885653480	432.016403501347	582.349277804363	1142.404834891511	317.644880193527	643.756974772994	1211.068942102526	231.501755907481	590.800608089966	1117.065076848869	45.321867036398	562.345793536598	1281.691554136619	118.643016297130	598.260420571034	1203.968128617799	41.620997432759	631.640285193193	1406.714905158334	80.800813529024	619.036007581780	734.976490046192	38.357525743060	398.313435217863	812.168244318260	35.426558425317	321.054352233151	894.835200015656	95.217058861958	352.337041922207	1024.245955293278	41.157418384391	327.686721169916	1135.675766268880	1110.734439825066	133.322548610939	1380.827628379425	1067.896840298538	197.726620892977	897.392510527805	1121.978357427704	741.292608608951	837.027317602228	868.863650005057	759.458276661809	
22	25.804500000000	844.983065200962	1001.461330974571	464.992290444532	1049.270381615698	1421.664993816901	290.809117195414	1139.975284382906	1347.106487130686	457.486814609164	1050.955432457276	1426.657193890461	625.803262503301	1042.976913968665	1482.582224407631	445.177258000118	1062.942974648389	932.366257390377	596.872861134313	1065.619047653761	948.460461796762	321.107326250072	1137.585393405155	760.007754655580	567.977490101683	1091.287290885110	637.206295693512	637.425637911956	1179.617321843080	603.044525500918	556.719687462151	1211.304747339203	519.379355597623	571.956266181606	1065.780861938888	721.638574465602	352.583591403802	951.483534341590	629.507725293874	283.099742897948	1005.226546373756	534.412884762598	351.115258739663	988.266965409692	467.317745099462	360.381817042340	953.010660426383	401.343285591794	349.499525384496	849.769560917766	302.500264946520	291.766689160690	874.498839023542	185.226312494666	365.770163662758	1196.493536253182	428.460890021874	581.760769931918	1142.493387301848	313.269318507726	641.862277329804	1212.285254499847	228.181053326670	588.687729726124	1119.461034885017	42.900548155504	558.718077211425	1283.772011985335	115.626891472355	595.364398730279	1205.703200825626	39.746833829909	628.835255799735	1408.558453206108	77.707865563651	617.358176422469	726.661834316374	38.496890112491	398.164877682639	803.972160996023	35.281393415505	321.032287237676	886.868690435041	95.057073496031	352.262597754477	1016.202415085105	41.015548047391	327.547222868458	1136.658274955490	1109.428680562118	135.112317442048	1382.080908025002	1078.066335255550	202.062876577395	893.472475324089	1123.878110935033	743.705695378177	831.024506735056	871.058139803220	760.408409935482	
23	25.816142857143	847.348391891396	999.045291855872	467.848952179914	1049.621947911130	1419.648194591225	293.383228548888	1140.902602399237	1345.886814632306	460.179331724049	1051.424586118009	1425.344273193760	628.329551794724	1043.258954202416	1480.802746808103	447.584542059118	1065.701413386663	929.966528050407	599.502841731656	1068.023190734813	946.825252732739	323.906067924039	1140.003689091106	756.916382660105	570.439943322644	1091.383687333949	633.658566602788	637.687950918283	1180.513174784071	600.040068517856	557.853340641596	1210.250094792785	516.103051866012	571.431694856688	1067.186341687950	719.574323358168	354.019333905356	951.933331511283	627.906958735962	285.097261029930	1005.777369673760	532.302562157497	352.546749740219	988.621937847041	464.403137792636	361.489523613603	951.396681691990	399.022956808643	350.751293856196	845.970676175168	302.528419300881	292.798525982154	868.419449382660	184.452856968665	366.074503216804	1196.123333915767	424.957469786573	580.991856728583	1142.016164787322	309.469448784864	640.129512214675	1211.875846802316	224.879297215479	586.568141746923	1118.437130954725	41.507936717122	555.557205508462	1283.056042061671	112.310043775087	592.608646761379	1204.007927168454	38.443231957702	626.499231488167	1407.272454623170	73.313908921246	615.811783719315	718.403256217850	39.181041905753	397.923851650273	795.828523209579	35.367271176856	320.964563546465	879.117048765340	94.928528187599	352.104199727862	1008.179821024706	40.804151411936	327.412901554560	1137.203192793875	1107.796301986211	137.154177229982	1382.436345058826	1087.029528324021	206.325702349680	890.258136569214	1125.353540489487	746.041274910008	826.198034607062	872.654171795980	761.474509261274	
